<svg width="70" height="70" viewBox="0 0 70 70" fill="none" xmlns="http://www.w3.org/2000/svg">
<rect width="70" height="70" rx="35" fill="#00B894"/>
<path d="M28 49H23.8C23.0574 49 22.3452 48.705 21.8201 48.1799C21.295 47.6548 21 46.9426 21 46.2V36.4C21 35.6574 21.295 34.9452 21.8201 34.4201C22.3452 33.895 23.0574 33.6 23.8 33.6H28M37.8 30.8V25.2C37.8 24.0861 37.3575 23.0178 36.5698 22.2302C35.7822 21.4425 34.7139 21 33.6 21L28 33.6V49H43.792C44.4673 49.0076 45.1225 48.771 45.6371 48.3336C46.1516 47.8962 46.4907 47.2877 46.592 46.62L48.524 34.02C48.5849 33.6187 48.5578 33.209 48.4447 32.8192C48.3315 32.4293 48.1349 32.0688 47.8686 31.7625C47.6023 31.4562 47.2725 31.2115 46.9022 31.0453C46.5319 30.8791 46.1299 30.7954 45.724 30.8H37.8Z" stroke="#FFEAA7" stroke-width="3" stroke-linecap="round" stroke-linejoin="round"/>
</svg>
