<svg width="70" height="70" viewBox="0 0 70 70" fill="none" xmlns="http://www.w3.org/2000/svg">
<rect width="70" height="70" rx="35" fill="#0984E3"/>
<path d="M47.8946 40.446C47.0039 42.5523 45.6109 44.4083 43.8372 45.8518C42.0635 47.2953 39.9632 48.2824 37.72 48.7267C35.4767 49.171 33.1588 49.059 30.9688 48.4005C28.7788 47.742 26.7834 46.5571 25.1572 44.9493C23.5309 43.3415 22.3233 41.3598 21.6399 39.1775C20.9564 36.9952 20.818 34.6787 21.2366 32.4305C21.6553 30.1823 22.6183 28.0709 24.0414 26.2808C25.4646 24.4908 27.3046 23.0766 29.4006 22.162" stroke="#FFEAA7" stroke-width="3" stroke-linecap="round" stroke-linejoin="round"/>
<path d="M49.0005 35C49.0005 33.1615 48.6384 31.341 47.9349 29.6424C47.2313 27.9439 46.2001 26.4005 44.9 25.1005C43.6 23.8005 42.0567 22.7693 40.3581 22.0657C38.6596 21.3621 36.8391 21 35.0005 21V35H49.0005Z" stroke="#FFEAA7" stroke-width="3" stroke-linecap="round" stroke-linejoin="round"/>
</svg>
