<svg width="70" height="70" viewBox="0 0 70 70" fill="none" xmlns="http://www.w3.org/2000/svg">
<rect width="70" height="70" rx="35" fill="#E84393"/>
<path d="M39.1134 26.6C40.4808 26.8668 41.7375 27.5356 42.7227 28.5207C43.7078 29.5059 44.3766 30.7626 44.6434 32.13M39.1134 21C41.9543 21.3156 44.6036 22.5878 46.6261 24.6078C48.6486 26.6278 49.9242 29.2754 50.2434 32.116M48.8434 43.288V47.488C48.8449 47.8779 48.7651 48.2638 48.6089 48.6211C48.4527 48.9783 48.2236 49.299 47.9363 49.5626C47.649 49.8262 47.3098 50.0269 46.9404 50.1518C46.5711 50.2767 46.1797 50.3231 45.7914 50.288C41.4833 49.8199 37.3452 48.3478 33.7094 45.99C30.3267 43.8405 27.4588 40.9726 25.3094 37.59C22.9433 33.9377 21.4709 29.7794 21.0114 25.452C20.9764 25.0649 21.0224 24.6747 21.1465 24.3063C21.2705 23.9379 21.47 23.5994 21.732 23.3123C21.9941 23.0252 22.3131 22.7958 22.6687 22.6387C23.0243 22.4817 23.4086 22.4004 23.7974 22.4H27.9974C28.6768 22.3933 29.3355 22.6339 29.8506 23.0769C30.3658 23.52 30.7023 24.1352 30.7974 24.808C30.9746 26.1521 31.3034 27.4718 31.7774 28.742C31.9657 29.2431 32.0065 29.7877 31.8948 30.3112C31.7832 30.8348 31.5238 31.3154 31.1474 31.696L29.3694 33.474C31.3623 36.979 34.2644 39.881 37.7694 41.874L39.5474 40.096C39.928 39.7196 40.4086 39.4602 40.9321 39.3485C41.4557 39.2369 42.0003 39.2776 42.5014 39.466C43.7715 39.94 45.0913 40.2687 46.4354 40.446C47.1154 40.5419 47.7365 40.8845 48.1805 41.4085C48.6245 41.9325 48.8604 42.6014 48.8434 43.288Z" stroke="#FFEAA7" stroke-width="3" stroke-linecap="round" stroke-linejoin="round"/>
</svg>
